<svg width="200" height="100" viewBox="0 0 200 100" fill="none" xmlns="http://www.w3.org/2000/svg">
<path d="M78.9774 37.654C78.0293 37.654 77.1641 37.7802 76.3818 38.0327C75.6233 38.265 74.9584 38.6561 74.3871 39.206C73.8384 39.7334 73.3951 40.4197 73.0573 41.2647C72.7409 42.1086 72.5613 43.116 72.5186 44.287C72.4523 46.1869 72.4523 48.0868 72.5186 49.9867C72.5613 51.1683 72.7409 52.1757 73.0573 53.0089C73.3951 53.8528 73.8384 54.5497 74.3871 55.0996C74.956 55.627 75.6209 56.0182 76.3818 56.273C77.1641 56.5053 78.0293 56.6214 78.9774 56.6214C79.909 56.6214 80.7742 56.4952 81.573 56.2428C82.3718 55.9678 83.0581 55.5684 83.6317 55.0445C84.2243 54.4958 84.6901 53.7989 85.0291 52.9538C85.3669 52.1099 85.5358 51.1179 85.5358 49.9778V48.3635H80.0192C79.5546 48.3635 79.3223 48.1265 79.3223 47.6524V47.2079C79.3223 46.7339 79.5546 46.4968 80.0192 46.4968H86.7927C87.2667 46.4968 87.5038 46.7339 87.5038 47.2079V49.9938C87.5038 51.2619 87.3142 52.4234 86.9349 53.4783C86.5556 54.513 85.9962 55.4113 85.2566 56.1734C84.5396 56.932 83.6412 57.5228 82.5615 57.9459C81.4948 58.3465 80.2918 58.5468 78.9525 58.5468C77.5801 58.5468 76.3771 58.3465 75.3436 57.9459C74.3089 57.524 73.433 56.9432 72.716 56.2037C72.0191 55.4653 71.481 54.5894 71.1017 53.576C70.7426 52.5414 70.5423 51.4012 70.5008 50.1555C70.4582 49.2074 70.4368 48.2047 70.4368 47.1475C70.4368 46.0808 70.4582 45.0781 70.5008 44.1394C70.5435 42.895 70.7545 41.7655 71.1337 40.7509C71.513 39.7162 72.0511 38.8297 72.748 38.0913C73.465 37.3529 74.3409 36.7829 75.3756 36.3811C76.4103 35.9591 77.6026 35.7482 78.9525 35.7482C80.4103 35.7482 81.656 35.9698 82.6895 36.4131C83.7242 36.8563 84.5686 37.3897 85.2229 38.0131C85.8771 38.6259 86.363 39.27 86.6807 39.9456C86.9971 40.6212 87.166 41.1806 87.1873 41.6238C87.2087 41.8135 87.1553 41.9717 87.0273 42.0985C86.9005 42.2052 86.7316 42.2585 86.5207 42.2585H85.8238C85.6341 42.2585 85.4966 42.217 85.4113 42.1341C85.3283 42.0274 85.2442 41.8585 85.1589 41.6274C84.9906 41.1533 84.7535 40.6792 84.4477 40.2051C84.1514 39.7311 83.752 39.3091 83.2495 38.9393C82.7434 38.5601 82.1419 38.2537 81.445 38.0202C80.7481 37.7879 79.9244 37.6718 78.9739 37.6718L78.9774 37.654ZM93.9252 43.9528C94.6838 42.495 96.1191 41.7661 98.2311 41.7661H99.4044C99.869 41.7661 100.101 41.9984 100.101 42.463V42.9074C100.101 43.372 99.869 43.6043 99.4044 43.6043H98.0426C96.7745 43.6043 95.7718 43.9735 95.0346 44.7119C94.2962 45.4503 93.927 46.453 93.927 47.7199V57.5335C93.927 57.7444 93.8529 57.9133 93.7048 58.0401C93.578 58.1669 93.4091 58.2304 93.1981 58.2304H92.6914C92.2268 58.2304 91.9945 57.9981 91.9945 57.5335V42.4932C91.9945 42.2822 92.0579 42.1133 92.1848 41.9865C92.3116 41.8384 92.4805 41.7643 92.6914 41.7643H93.1981C93.4091 41.7643 93.578 41.8384 93.7048 41.9865C93.8529 42.1133 93.927 42.2822 93.927 42.4932V43.951L93.9252 43.9528ZM113.481 58.2392C113.017 58.2392 112.784 58.0069 112.784 57.5423V56.0543C112.595 56.3506 112.342 56.6469 112.025 56.9432C111.729 57.2395 111.36 57.5032 110.918 57.7343C110.474 57.9666 109.941 58.1563 109.318 58.3032C108.705 58.4715 107.988 58.5557 107.166 58.5557C106.408 58.5557 105.679 58.4395 104.98 58.2072C104.304 57.9548 103.703 57.617 103.175 57.1939C102.669 56.772 102.258 56.2759 101.941 55.7059C101.645 55.137 101.497 54.5147 101.497 53.8392C101.497 53.1221 101.645 52.478 101.941 51.9067C102.258 51.3378 102.69 50.8418 103.239 50.4187C103.788 49.9754 104.442 49.6169 105.202 49.3431C105.984 49.0468 106.839 48.8358 107.767 48.7102L112.77 48.0133V46.9057C112.77 45.7655 112.422 44.879 111.725 44.2461C111.049 43.6132 109.962 43.2968 108.464 43.2968C107.283 43.2968 106.364 43.5291 105.709 43.9937C105.076 44.4369 104.676 44.9229 104.51 45.4515C104.427 45.7039 104.322 45.8835 104.194 45.9901C104.087 46.0731 103.939 46.1146 103.749 46.1146H103.305C103.115 46.1146 102.946 46.0512 102.798 45.9244C102.671 45.7762 102.608 45.6073 102.608 45.4177C102.608 45.1214 102.714 44.7522 102.925 44.3101C103.135 43.8668 103.473 43.4342 103.938 43.0123C104.412 42.5904 105.024 42.2318 105.774 41.9367C106.513 41.6203 107.411 41.4621 108.469 41.4621C109.714 41.4621 110.738 41.6309 111.542 41.9687C112.364 42.3065 113.008 42.7498 113.474 43.2985C113.939 43.8259 114.255 44.4168 114.423 45.071C114.613 45.7252 114.708 46.3694 114.708 47.0035V57.5459C114.708 58.0105 114.476 58.2428 114.011 58.2428H113.472L113.481 58.2392ZM107.497 56.7192C108.214 56.7192 108.89 56.6031 109.524 56.3708C110.178 56.1183 110.748 55.7491 111.234 55.2632C111.708 54.7891 112.087 54.1769 112.372 53.4267C112.647 52.6883 112.784 51.8231 112.784 50.8311V49.7555L108.701 50.3244C105.197 50.7985 103.445 51.9174 103.445 53.6809C103.445 54.2084 103.562 54.6623 103.794 55.0427C104.046 55.422 104.363 55.7385 104.743 55.9921C105.122 56.2445 105.555 56.4342 106.041 56.561C106.515 56.6677 107.001 56.721 107.499 56.721L107.497 56.7192ZM126.975 58.5557C125.645 58.5557 124.558 58.3186 123.714 57.8446C122.87 57.3705 122.184 56.7797 121.656 56.0721V63.5744C121.656 64.039 121.423 64.2713 120.959 64.2713H120.42C119.955 64.2713 119.723 64.039 119.723 63.5744V42.463C119.723 41.9984 119.955 41.7661 120.42 41.7661H120.959C121.423 41.7661 121.656 41.9984 121.656 42.463V43.951C122.183 43.2339 122.869 42.6431 123.714 42.1785C124.558 41.7044 125.645 41.4674 126.975 41.4674C128.199 41.4674 129.233 41.689 130.077 42.1323C130.942 42.5542 131.639 43.1243 132.168 43.8425C132.695 44.5394 133.074 45.3418 133.306 46.2497C133.558 47.1362 133.706 48.0441 133.75 48.9733C133.771 49.2898 133.782 49.6382 133.782 50.0187C133.782 50.3979 133.771 50.7464 133.75 51.064C133.707 51.9956 133.559 52.9141 133.306 53.8196C133.073 54.7061 132.694 55.5085 132.168 56.2268C131.64 56.9237 130.943 57.4937 130.077 57.937C129.233 58.3589 128.199 58.5699 126.975 58.5699V58.5557ZM121.656 48.8666C121.634 49.1831 121.624 49.5943 121.624 50.1004C121.624 50.6065 121.634 51.0178 121.656 51.3342C121.677 51.9671 121.782 52.6113 121.972 53.2667C122.183 53.8996 122.499 54.4697 122.921 54.977C123.343 55.483 123.877 55.905 124.521 56.2428C125.154 56.5592 125.914 56.7174 126.8 56.7174C127.732 56.7174 128.502 56.5592 129.112 56.2428C129.745 55.9263 130.251 55.5044 130.632 54.977C131.032 54.4282 131.317 53.806 131.485 53.1103C131.675 52.3932 131.791 51.6542 131.833 50.8933C131.855 50.3007 131.855 49.7099 131.833 49.1209C131.791 48.3623 131.675 47.6334 131.485 46.9342C131.317 46.2373 131.032 45.6251 130.632 45.0977C130.252 44.5489 129.746 44.1163 129.112 43.7999C128.499 43.4621 127.729 43.2932 126.8 43.2932C125.893 43.2932 125.122 43.4621 124.489 43.7999C123.856 44.1377 123.323 44.5809 122.889 45.1297C122.489 45.6571 122.182 46.2479 121.97 46.9022C121.781 47.5564 121.675 48.2106 121.654 48.8649L121.656 48.8666ZM140.026 43.9528C140.595 43.2144 141.281 42.6129 142.084 42.1483C142.883 41.6837 143.97 41.4514 145.345 41.4514C146.421 41.4514 147.36 41.6309 148.163 41.9901C148.961 42.3492 149.626 42.8452 150.157 43.4781C150.706 44.111 151.117 44.8606 151.391 45.727C151.666 46.5922 151.804 47.5315 151.804 48.5448V57.537C151.804 58.0016 151.571 58.2339 151.107 58.2339H150.573C150.109 58.2339 149.876 58.0016 149.876 57.537V48.7013C149.876 47.0124 149.465 45.6932 148.643 44.7439C147.82 43.772 146.617 43.2861 145.034 43.2861C143.514 43.2861 142.301 43.7602 141.393 44.7083C140.485 45.6565 140.031 46.9881 140.031 48.7031V57.5388C140.031 58.0034 139.799 58.2357 139.334 58.2357H138.795C138.331 58.2357 138.098 58.0034 138.098 57.5388V36.4451C138.098 35.9805 138.331 35.7482 138.795 35.7482H139.334C139.799 35.7482 140.031 35.9805 140.031 36.4451V43.9474L140.026 43.9528ZM164.719 35.7535C165.944 35.7535 167.063 35.9331 168.076 36.2922C169.089 36.6513 169.954 37.2001 170.671 37.9384C171.41 38.6555 171.98 39.5634 172.382 40.662C172.804 41.7382 173.036 43.0153 173.079 44.4932C173.121 45.4414 173.143 46.3279 173.143 47.1528C173.143 47.9754 173.121 48.8619 173.079 49.8124C172.972 52.8311 172.202 55.0475 170.767 56.4614L172.794 59.3113C172.816 59.3539 172.837 59.3954 172.858 59.4357C172.88 59.4784 172.89 59.5524 172.89 59.6579C172.89 59.8262 172.827 59.9744 172.7 60.1024C172.573 60.2292 172.425 60.2926 172.256 60.2926H171.559C171.326 60.2926 171.126 60.1978 170.958 60.0082C170.789 59.8399 170.652 59.6917 170.545 59.5637L169.148 57.6312C167.88 58.244 166.402 58.5504 164.714 58.5504C162.076 58.5504 160.039 57.8434 158.604 56.4294C157.19 55.0155 156.44 52.8098 156.355 49.8124C156.312 48.8643 156.291 47.9777 156.291 47.1528C156.291 46.3303 156.312 45.4438 156.355 44.4932C156.397 43.0153 156.619 41.7382 157.02 40.662C157.442 39.5645 158.012 38.6567 158.73 37.9384C159.468 37.2001 160.334 36.6513 161.326 36.2922C162.339 35.9331 163.468 35.7535 164.714 35.7535H164.719ZM164.719 37.6558C163.833 37.6558 163.009 37.7932 162.248 38.0682C161.49 38.3207 160.825 38.7319 160.254 39.302C159.685 39.8709 159.231 40.5998 158.892 41.4887C158.575 42.3753 158.396 43.4301 158.353 44.6532C158.332 45.1273 158.31 45.5706 158.289 45.983C158.289 46.3836 158.289 46.7747 158.289 47.1564C158.289 47.5356 158.289 47.9351 158.289 48.3546C158.31 48.7552 158.332 49.1878 158.353 49.6524C158.396 50.8969 158.575 51.9636 158.892 52.8525C159.23 53.7177 159.673 54.4347 160.222 55.0036C160.79 55.5725 161.455 55.9945 162.216 56.2694C162.975 56.5219 163.807 56.6481 164.712 56.6481C165.62 56.6481 166.452 56.5219 167.208 56.2694C167.967 55.9945 168.621 55.5725 169.171 55.0036C169.74 54.4347 170.183 53.7177 170.501 52.8525C170.839 51.9659 171.028 50.8993 171.07 49.6524C171.091 49.1878 171.102 48.7552 171.102 48.3546C171.102 47.9327 171.102 47.5333 171.102 47.1564C171.102 46.7771 171.102 46.386 171.102 45.983C171.102 45.5824 171.091 45.1392 171.07 44.6532C171.027 43.4289 170.837 42.3741 170.501 41.4887C170.184 40.6022 169.741 39.8733 169.171 39.302C168.602 38.7331 167.937 38.3219 167.176 38.0682C166.418 37.7932 165.594 37.6558 164.705 37.6558H164.719ZM180.174 56.3334H191.097C191.571 56.3334 191.808 56.5705 191.808 57.0446V57.5192C191.808 57.9838 191.571 58.2161 191.097 58.2161H178.876C178.411 58.2161 178.179 57.9838 178.179 57.5192V36.7651C178.179 36.3005 178.411 36.0682 178.876 36.0682H179.477C179.942 36.0682 180.174 36.3005 180.174 36.7651V56.3317V56.3334ZM12.8838 65.2456L10.7504 64.0118L34.534 22.8199L36.6673 24.0537L12.8838 65.2456Z" fill="#E10098"/>
<path d="M10.2651 60.7229H57.8321V63.1887H10.2651V60.7229Z" fill="#E10098"/>
<path d="M34.9997 75.8449L11.2055 62.1078L12.4393 59.9744L36.2318 73.708L34.9997 75.8449ZM55.6685 40.0399L31.8761 26.3045L33.1099 24.1711L56.9023 37.9083L55.6685 40.0399Z" fill="#E10098"/>
<path d="M12.4446 40.0327L11.2108 37.8994L35.0228 24.1782L36.2566 26.3116L12.4446 40.0327Z" fill="#E10098"/>
<path d="M55.2294 65.2456L31.4441 24.0537L33.5775 22.8199L57.361 64.0118L55.2294 65.2456ZM12.1513 36.2637H14.6136V63.738H12.1513V36.2637ZM53.496 36.2637H55.9619V63.738H53.4943L53.496 36.2637Z" fill="#E10098"/>
<path d="M34.5784 74.8014L33.501 72.9347L54.1947 60.9878L55.2721 62.8545L34.5784 74.8014Z" fill="#E10098"/>
<path d="M59.2295 64.5398C58.5412 65.7304 57.4086 66.5992 56.0804 66.9555C54.7521 67.3118 53.3367 67.1265 52.145 66.4403C50.9544 65.752 50.0856 64.6194 49.7293 63.2911C49.373 61.9628 49.5582 60.5475 50.2445 59.3557C50.9328 58.1651 52.0654 57.2963 53.3936 56.94C54.7219 56.5837 56.1373 56.769 57.3291 57.4552C59.8251 58.8775 60.6713 62.0775 59.2313 64.5398H59.2295ZM17.8563 40.646C17.168 41.8366 16.0354 42.7054 14.7072 43.0617C13.3789 43.418 11.9635 43.2327 10.7718 42.5465C9.5812 41.8582 8.7124 40.7256 8.35609 39.3973C7.99977 38.0691 8.18507 36.6537 8.8713 35.4619C9.55961 34.2714 10.6922 33.4026 12.0205 33.0462C13.3487 32.6899 14.7641 32.8752 15.9559 33.5615C18.4359 34.9837 19.2804 38.1838 17.8581 40.646H17.8563ZM8.8873 64.5398C7.46149 62.0597 8.30773 58.897 10.7896 57.4552C13.2696 56.0294 16.4323 56.8757 17.8741 59.3575C19.2999 61.8375 18.4537 65.0002 15.9719 66.442C13.4758 67.8679 10.3131 67.0216 8.8873 64.5398V64.5398ZM50.2623 40.646C48.8365 38.166 49.6827 35.0033 52.1645 33.5615C54.6446 32.1357 57.8073 32.9819 59.2491 35.4637C60.6749 37.9438 59.8287 41.1065 57.3468 42.5483C56.1551 43.2345 54.7397 43.4198 53.4114 43.0635C52.0832 42.7072 50.9506 41.8384 50.2623 40.6478V40.646ZM34.054 79.0841C31.1881 79.0841 28.8717 76.7676 28.8717 73.9017C28.8717 71.0359 31.1935 68.7194 34.054 68.7194C36.9145 68.7194 39.2363 71.0359 39.2363 73.9017C39.2339 75.2754 38.6872 76.5922 37.7158 77.5636C36.7445 78.535 35.4277 79.0817 34.054 79.0841V79.0841ZM34.054 31.293C31.1881 31.293 28.8717 28.9765 28.8717 26.1107C28.8717 23.2448 31.1935 20.9283 34.054 20.9283C36.9145 20.9283 39.2363 23.2448 39.2363 26.1107C39.2375 26.7915 39.1042 27.466 38.8442 28.0952C38.5842 28.7245 38.2025 29.2963 37.721 29.7777C37.2396 30.2592 36.6678 30.6409 36.0385 30.9009C35.4093 31.1609 34.7348 31.2941 34.054 31.293Z" fill="#E10098"/>
</svg>
