<svg width="160" height="84" viewBox="0 0 160 84" fill="none" xmlns="http://www.w3.org/2000/svg">
<mask id="mask0" mask-type="alpha" maskUnits="userSpaceOnUse" x="0" y="0" width="160" height="84">
<path fill-rule="evenodd" clip-rule="evenodd" d="M0 0H159.748V83.3807H0V0Z" fill="white"/>
</mask>
<g mask="url(#mask0)">
<path fill-rule="evenodd" clip-rule="evenodd" d="M0 83.2517H1.75536V72.1116H0V83.2517ZM4.35392 83.2517H8.99834V81.6604H6.10927V72.1116H4.35392V83.2517ZM11.3037 83.2517H15.9481V81.6604H13.0597V72.1116H11.3037V83.2517ZM18.2534 83.2517H20.0088V72.1116H18.2534V83.2517ZM26.3651 83.2517H28.1685V72.1116H26.6046V78.7801L24.8012 72.1116H22.5987V83.2517H24.1789V75.1835L26.3651 83.2517ZM32.43 74.6756C32.43 74.2722 32.5125 73.9883 32.6776 73.8237C32.8426 73.6598 33.0631 73.5775 33.3398 73.5775C33.6165 73.5775 33.837 73.6598 34.002 73.8237C34.1671 73.9883 34.2496 74.2722 34.2496 74.6756V80.6912C34.2496 81.0945 34.1671 81.3779 34.002 81.5424C33.837 81.707 33.6165 81.7893 33.3398 81.7893C33.0631 81.7893 32.8426 81.707 32.6776 81.5424C32.5125 81.3779 32.43 81.0945 32.43 80.6912V74.6756ZM30.6745 80.5788C30.6745 81.4807 30.9031 82.1728 31.361 82.6557C31.8183 83.138 32.4778 83.3795 33.3396 83.3795C34.2014 83.3795 34.8609 83.138 35.3189 82.6557C35.7761 82.1728 36.0048 81.4807 36.0048 80.5788V74.7859C36.0048 73.884 35.7761 73.1919 35.3189 72.709C34.8609 72.226 34.2014 71.9845 33.3396 71.9845C32.4778 71.9845 31.8183 72.226 31.361 72.709C30.9031 73.1919 30.6745 73.884 30.6745 74.7859V80.5788ZM38.5228 83.2517H40.2781V72.1116H38.5228V83.2517ZM43.0001 76.17C43.1699 76.5626 43.3829 76.9127 43.638 77.2203C43.8937 77.5286 44.1676 77.8119 44.4598 78.0722C44.7527 78.3319 45.0267 78.5923 45.2817 78.852C45.5374 79.1117 45.7498 79.3876 45.9203 79.6797C46.0907 79.9711 46.176 80.3083 46.176 80.6901C46.176 81.0935 46.0934 81.3741 45.9284 81.5333C45.7633 81.6925 45.5428 81.7721 45.2661 81.7721C44.9895 81.7721 44.7683 81.6925 44.6039 81.5333C44.4389 81.3741 44.3563 81.0935 44.3563 80.6901V79.8942H42.6964V80.5788C42.6964 81.4807 42.9175 82.1728 43.3586 82.6557C43.8003 83.138 44.4524 83.3795 45.3142 83.3795C46.176 83.3795 46.8274 83.138 47.2691 82.6557C47.7101 82.1728 47.9313 81.4807 47.9313 80.5788C47.9313 80.048 47.8461 79.5866 47.6756 79.194C47.5058 78.8014 47.2928 78.4513 47.0377 78.1437C46.782 77.8361 46.5081 77.5522 46.2159 77.2925C45.923 77.0321 45.649 76.7724 45.394 76.5127C45.1383 76.2523 44.9252 75.9764 44.7554 75.685C44.585 75.393 44.4997 75.0564 44.4997 74.6746C44.4997 74.2712 44.5769 73.9872 44.7311 73.8226C44.8853 73.6587 45.1011 73.5764 45.3778 73.5764C45.6544 73.5764 45.8695 73.6587 46.0244 73.8226C46.178 73.9872 46.2558 74.2712 46.2558 74.6746V75.136H47.9151V74.7859C47.9151 73.884 47.7 73.1919 47.2691 72.709C46.8382 72.226 46.1915 71.9845 45.3297 71.9845C44.4679 71.9845 43.8219 72.226 43.3911 72.709C42.9602 73.1919 42.7444 73.884 42.7444 74.7859C42.7444 75.3161 42.8296 75.7781 43.0001 76.17ZM54.2827 83.2517H58.9264V81.6604H56.038V72.1116H54.2827V83.2517ZM62.989 73.7029H66.0207V72.1116H61.2329V83.2517H66.0207V81.6604H62.989V78.3977H65.3984V76.8064H62.989V73.7029ZM71.1595 78.6368H71.9577V80.6901C71.9577 81.0935 71.8752 81.3741 71.7101 81.5333C71.5451 81.6925 71.3246 81.7721 71.0479 81.7721C70.7712 81.7721 70.5507 81.6925 70.3857 81.5333C70.2206 81.3741 70.1381 81.0935 70.1381 80.6901V74.6746C70.1381 74.2712 70.2206 73.9872 70.3857 73.8226C70.5507 73.6587 70.7712 73.5764 71.0479 73.5764C71.3246 73.5764 71.5451 73.6587 71.7101 73.8226C71.8752 73.9872 71.9577 74.2712 71.9577 74.6746V75.8678H73.6177V74.7859C73.6177 73.884 73.3965 73.1919 72.9555 72.709C72.5138 72.226 71.8617 71.9845 70.9999 71.9845C70.1381 71.9845 69.4867 72.226 69.045 72.709C68.6033 73.1919 68.3827 73.884 68.3827 74.7859V80.5788C68.3827 81.4807 68.6033 82.1728 69.045 82.6557C69.4867 83.138 70.1381 83.3795 70.9999 83.3795C71.8617 83.3795 72.5138 83.138 72.9555 82.6557C73.3965 82.1728 73.6177 81.4807 73.6177 80.5788V77.0456H71.1595V78.6368ZM80.081 72.1116H77.5112L75.724 83.2517H77.336L77.639 81.2308H79.7935L80.0965 83.2517H81.8681L80.081 72.1116ZM78.7082 74.084L79.5538 79.7177H77.862L78.7082 74.084ZM84.1984 83.2517H88.8421V81.6604H85.9537V72.1116H84.1984V83.2517ZM98.849 72.1116H96.2799L94.4921 83.2517H96.104L96.4071 81.2308H98.5615L98.8652 83.2517H100.637L98.849 72.1116ZM97.4761 74.084L98.3223 79.7177H96.6305L97.4761 74.084ZM102.966 83.2517H104.721V72.1116H102.966V83.2517ZM107.319 83.2517H110.096C110.98 83.2517 111.636 83.0183 112.067 82.5515C112.498 82.0847 112.714 81.4007 112.714 80.4989V74.8651C112.714 73.9633 112.498 73.2786 112.067 72.8118C111.636 72.345 110.98 72.1116 110.096 72.1116H107.319V83.2517ZM110.064 73.7031C110.341 73.7031 110.559 73.7827 110.719 73.9419C110.878 74.1011 110.958 74.3823 110.958 74.7857V80.5787C110.958 80.982 110.878 81.2627 110.719 81.4218C110.559 81.581 110.341 81.6606 110.064 81.6606H109.075V73.7031H110.064ZM120.815 74.5743C120.815 74.1669 120.898 73.8795 121.065 73.7136C121.232 73.547 121.455 73.464 121.735 73.464C122.015 73.464 122.238 73.547 122.405 73.7136C122.571 73.8795 122.655 74.1669 122.655 74.5743V80.6587C122.655 81.0668 122.571 81.3541 122.405 81.52C122.238 81.6867 122.015 81.7696 121.735 81.7696C121.455 81.7696 121.232 81.6867 121.065 81.52C120.898 81.3541 120.815 81.0668 120.815 80.6587V74.5743ZM119.039 80.5475C119.039 81.4601 119.27 82.1603 119.734 82.648C120.196 83.137 120.863 83.3806 121.735 83.3806C122.606 83.3806 123.273 83.137 123.737 82.648C124.199 82.1603 124.431 81.4601 124.431 80.5475V74.6884C124.431 73.7764 124.199 73.0763 123.737 72.5879C123.273 72.1002 122.606 71.8553 121.735 71.8553C120.863 71.8553 120.196 72.1002 119.734 72.5879C119.27 73.0763 119.039 73.7764 119.039 74.6884V80.5475ZM130.774 83.252H132.598V71.9845H131.016V78.7292L129.192 71.9845H126.965V83.252H128.562V75.0914L130.774 83.252ZM135.223 83.252H139.92V81.6426H136.999V71.9845H135.223V83.252ZM142.252 83.252H144.028V71.9845H142.252V83.252ZM150.457 83.252H152.28V71.9845H150.699V78.7292L148.874 71.9845H146.647V83.252H148.245V75.0914L150.457 83.252ZM156.681 73.5946H159.748V71.9845H154.905V83.252H159.748V81.6426H156.681V78.3427H159.118V76.7333H156.681V73.5946Z" fill="#797979"/>
<path fill-rule="evenodd" clip-rule="evenodd" d="M159.647 32.9263C159.647 14.8709 144.969 0.234009 126.862 0.234009C114.671 0.234009 104.056 6.88633 98.4073 16.7333L106.99 33.5678C106.983 33.3533 106.958 33.1428 106.958 32.9263C106.958 22.0352 115.87 13.2054 126.862 13.2054C137.856 13.2054 146.768 22.0352 146.768 32.9263C146.768 43.8174 137.856 52.6472 126.862 52.6472C122.212 52.6472 117.944 51.0546 114.556 48.407L123.223 65.4054C124.419 65.5377 125.631 65.6186 126.862 65.6186C144.969 65.6186 159.647 50.9817 159.647 32.9263Z" fill="#04A0D9"/>
<path fill-rule="evenodd" clip-rule="evenodd" d="M0.100769 65.6179H11.8742V0.093689H0.100769V65.6179Z" fill="#797979"/>
<path fill-rule="evenodd" clip-rule="evenodd" d="M82.9663 0H79.1173L52.2506 52.6068H34.2837V0.0937612H22.4968V65.618H45.6059H60.3435L80.7131 25.7418L101.179 65.618H116.281L82.9663 0Z" fill="#797979"/>
</g>
</svg>
