<?xml version="1.0" standalone="no"?>
<!DOCTYPE svg PUBLIC "-//W3C//DTD SVG 20010904//EN"
 "http://www.w3.org/TR/2001/REC-SVG-20010904/DTD/svg10.dtd">
<svg version="1.0" xmlns="http://www.w3.org/2000/svg"
 width="1129.000000pt" height="400.000000pt" viewBox="0 0 1129.000000 400.000000"
 preserveAspectRatio="xMidYMid meet">
<metadata>
Created by potrace 1.16, written by Peter Selinger 2001-2019
</metadata>
<g transform="translate(0.000000,400.000000) scale(0.100000,-0.100000)"
fill="#DD0031" stroke="none">
<path d="M2225 2970 c-16 -4 -357 -8 -757 -9 -478 -1 -728 -4 -728 -11 0 -6
-54 -321 -120 -701 -66 -380 -120 -695 -120 -700 0 -5 61 -9 139 -9 l140 0 10
53 c13 63 91 512 91 521 0 3 123 6 273 6 l274 0 17 103 c10 56 20 110 22 120
5 16 -13 17 -269 17 l-274 0 31 183 32 182 427 3 428 2 -31 -46 c-95 -138
-150 -322 -157 -530 -6 -169 9 -259 64 -371 91 -187 298 -288 521 -255 50 8
231 12 519 12 412 0 442 1 447 18 6 20 86 478 86 492 0 6 49 10 119 10 l119 0
76 -232 c41 -128 78 -245 81 -260 l7 -28 154 0 c85 0 154 2 154 5 0 2 -45 135
-101 296 -55 160 -99 292 -97 293 1 1 28 15 59 30 169 84 258 241 246 436 -3
47 -8 95 -12 108 -7 22 -7 22 114 22 l121 0 0 -27 c-1 -52 61 -1118 66 -1141
4 -22 6 -23 146 -20 l142 3 78 200 c234 595 292 739 295 725 3 -15 73 -900 73
-919 0 -7 48 -11 144 -11 l143 0 88 238 c49 130 148 397 221 592 l132 355 241
3 c132 1 241 0 241 -2 0 -3 -135 -257 -299 -565 -165 -308 -307 -574 -316
-590 l-16 -31 156 0 155 0 72 145 73 145 251 0 252 0 11 -75 c6 -42 11 -107
11 -145 l0 -70 375 0 375 0 0 28 c0 15 18 129 40 255 22 125 40 230 40 232 0
3 53 5 118 5 l119 0 83 -260 84 -260 153 0 c84 0 153 2 153 3 0 2 -45 133
-100 292 -55 158 -100 291 -100 295 0 4 15 13 33 20 58 23 154 98 192 150 20
27 46 75 57 107 27 77 34 212 15 276 l-15 47 145 0 145 0 -6 -32 c-42 -237
-196 -1133 -196 -1144 0 -13 38 -15 263 -14 144 1 483 1 754 0 l492 0 3 -29 3
-30 128 84 c70 47 127 87 127 90 0 3 -57 43 -127 90 l-128 84 -3 -30 -3 -29
-270 0 -270 0 44 62 c65 91 106 179 135 287 21 81 25 119 26 246 1 132 -2 158
-22 220 -64 191 -206 321 -392 361 -52 11 -231 14 -916 14 l-850 0 -102 -587
c-56 -324 -102 -592 -102 -596 0 -4 -53 -6 -117 -5 l-117 3 -112 590 c-62 325
-113 591 -113 593 -1 1 -243 2 -538 2 l-538 0 -170 -501 -170 -500 -7 58 c-4
32 -18 247 -33 478 -14 231 -28 430 -31 443 -4 21 -8 22 -123 22 l-119 0 -24
-62 c-13 -35 -98 -257 -188 -495 -91 -237 -167 -430 -169 -427 -4 3 -29 779
-30 927 l-1 57 -713 0 -712 0 -89 -512 c-48 -282 -95 -550 -103 -595 l-15 -83
-155 0 -155 0 22 33 c41 62 108 213 128 292 83 318 34 609 -126 756 -66 61
-121 91 -207 114 -61 16 -187 18 -240 5z m219 -261 c85 -58 111 -143 103 -338
-12 -301 -99 -505 -248 -581 -63 -33 -172 -38 -231 -12 -112 49 -155 193 -129
433 31 290 133 465 301 520 14 5 57 7 97 5 56 -2 80 -8 107 -27z m1300 -9 c59
-28 81 -70 80 -150 0 -112 -69 -205 -178 -240 -38 -12 -293 -16 -305 -5 -4 5
38 266 61 379 l10 49 146 -6 c115 -5 153 -11 186 -27z m4145 21 c117 -14 165
-61 164 -163 -1 -76 -22 -131 -70 -180 -67 -69 -125 -83 -324 -80 l-96 2 33
193 c19 105 36 202 39 215 5 21 10 22 93 22 48 -1 120 -5 161 -9z m1271 -29
c108 -53 152 -180 131 -381 -39 -372 -195 -540 -499 -541 l-74 0 6 28 c3 15
39 225 81 467 42 242 78 446 81 454 3 11 25 12 112 7 87 -6 117 -12 162 -34z
m-2570 -347 c17 -115 33 -225 36 -242 l6 -33 -171 0 c-94 0 -171 2 -171 5 0 3
57 120 128 260 91 183 129 250 134 238 4 -10 21 -112 38 -228z"/>
</g>
</svg>
