<svg width="200" height="100" viewBox="0 0 200 100" fill="none" xmlns="http://www.w3.org/2000/svg">
<path d="M43.4008 55.7402C46.6001 55.7402 49.1937 53.1466 49.1937 49.9473C49.1937 46.7479 46.6001 44.1543 43.4008 44.1543C40.2014 44.1543 37.6078 46.7479 37.6078 49.9473C37.6078 53.1466 40.2014 55.7402 43.4008 55.7402Z" fill="#00D8FF"/>
<path d="M43.4007 63.5076C35.2372 63.5076 28.091 62.5411 22.7357 60.711C15.3019 58.1707 10.6833 54.044 10.6833 49.9472C10.6833 45.9925 14.9601 42.1405 22.126 39.6418C27.9328 37.6177 35.489 36.5034 43.3996 36.5034H43.4007C51.1647 36.5034 58.6192 37.598 64.3937 39.5841C71.734 42.1116 76.1171 45.9867 76.1171 49.9472C76.1171 54.0544 71.3391 58.1869 63.649 60.7352C58.2498 62.5227 51.0596 63.5076 43.4007 63.5076ZM43.4007 39.8369C35.9612 39.8369 28.6071 40.9131 23.2229 42.7906C16.8977 44.996 14.0168 48.0466 14.0168 49.9484C14.0168 52.0649 17.3815 55.3591 23.813 57.5588C28.7538 59.2469 35.7095 60.1764 43.4007 60.1764C50.7132 60.1764 57.5304 59.2515 62.5994 57.5738C69.5967 55.254 72.7835 51.9933 72.7835 49.9472C72.7835 48.0455 69.8184 44.9787 63.3083 42.7363C57.8756 40.8669 50.8045 39.8369 43.4007 39.8369Z" fill="#00D8FF"/>
<path d="M30.2525 79.1176C29.0367 79.1176 27.9409 78.8555 27.0068 78.3162C23.5809 76.3418 22.38 70.7116 23.7968 63.2559C24.9434 57.2159 27.7515 50.1135 31.704 43.2583H31.7051C35.5848 36.5323 40.2577 30.6216 44.8614 26.6126C50.7178 21.5182 56.2649 19.6534 59.6942 21.6337C63.2518 23.6843 64.4457 29.8884 62.8107 37.8232C61.6664 43.3853 58.9264 50.1054 55.0963 56.7482C51.0146 63.8263 46.6072 69.5327 42.3511 73.2519C37.9934 77.0623 33.6553 79.1176 30.2525 79.1176ZM34.5918 44.9244C30.8761 51.3686 28.1337 58.277 27.0714 63.8783C25.8209 70.4599 27.0252 74.4804 28.6718 75.4296C30.5031 76.4896 35.0386 75.2183 40.1573 70.7439C44.1397 67.2626 48.3081 61.8495 52.2085 55.0843C55.8654 48.7429 58.4703 42.3749 59.5453 37.1524C61.0325 29.9334 59.8016 25.5457 58.028 24.5226C56.3803 23.5735 52.242 24.6092 47.0483 29.1286C42.716 32.9009 38.2913 38.5103 34.5918 44.9244Z" fill="#00D8FF"/>
<path d="M56.5605 79.1419C53.3459 79.1419 49.2907 77.2217 45.09 73.6064C40.4298 69.5963 35.6795 63.6162 31.7155 56.7691C27.8266 50.0535 25.0392 43.0539 23.8661 37.0566C22.3754 29.4381 23.5312 23.704 26.9606 21.7192C30.5181 19.6592 36.4843 21.7261 42.5428 27.1045C46.7931 30.8791 51.2478 36.6086 55.0859 43.2387C59.1781 50.3087 61.9216 56.9781 63.0185 62.5239C64.5438 70.229 63.2898 76.2922 59.7416 78.3463C58.819 78.8798 57.7475 79.1419 56.5605 79.1419ZM30.1682 24.2571C29.5378 24.2571 29.0194 24.3795 28.6291 24.6047C26.9837 25.5573 25.814 29.661 27.1361 36.4181C28.24 42.0609 30.8911 48.6956 34.5987 55.0994C38.326 61.5378 42.9423 67.362 47.2642 71.0812C52.3413 75.4516 56.4265 76.4111 58.0719 75.4631C59.9044 74.402 61.0694 69.8399 59.7485 63.1729C58.722 57.9826 56.1113 51.6677 52.2016 44.9106C48.5367 38.5796 44.321 33.1411 40.3293 29.5974C36.0316 25.7824 32.3991 24.2571 30.1682 24.2571Z" fill="#00D8FF"/>
<path fill-rule="evenodd" clip-rule="evenodd" d="M107.7 64.7501L100.6 54.0168C104.183 53.7001 107.417 51.1001 107.417 46.3501C107.417 41.5167 103.983 38.4167 99.1833 38.4167H88.6167V64.7168H91.8833V54.2668H97.1333L103.833 64.7168L107.7 64.7501ZM98.7833 51.4168H91.8833V41.3667H98.7833C101.9 41.3667 104.033 43.4167 104.033 46.3834C104.033 49.3501 101.9 51.4168 98.7833 51.4168ZM119.883 65.2168C123 65.2168 125.567 64.1834 127.45 62.3001L126.033 60.3668C124.533 61.9001 122.333 62.7668 120.15 62.7668C116.05 62.7668 113.533 59.7668 113.283 56.1834H128.7V55.4334C128.7 49.7167 125.3 45.2167 119.55 45.2167C114.117 45.2167 110.167 49.6667 110.167 55.2001C110.183 61.1501 114.25 65.2001 119.883 65.2168ZM125.8 54.0168H113.3C113.467 51.1001 115.467 47.6668 119.533 47.6668C123.867 47.6668 125.767 51.1834 125.8 54.0168ZM148.35 64.7501V51.6668C148.35 47.0501 145 45.2334 140.983 45.2334C137.867 45.2334 135.417 46.2501 133.367 48.3834L134.75 50.4334C136.45 48.6168 138.3 47.8001 140.583 47.8001C143.35 47.8001 145.4 49.2668 145.4 51.8168V55.2501C143.867 53.4834 141.7 52.6501 139.083 52.6501C135.85 52.6501 132.417 54.6667 132.417 58.9167C132.417 63.0501 135.85 65.2334 139.083 65.2334C141.65 65.2334 143.817 64.3334 145.4 62.6001V64.7668L148.35 64.7501ZM140.167 63.0834C137.4 63.0834 135.467 61.3501 135.467 58.9501C135.467 56.5001 137.4 54.7668 140.167 54.7668C142.25 54.7668 144.267 55.5501 145.417 57.1334V60.7168C144.267 62.3001 142.25 63.0834 140.167 63.0834ZM162.667 65.2168C166.133 65.2168 168.183 63.8001 169.65 61.9001L167.683 60.0834C166.417 61.7834 164.8 62.5668 162.85 62.5668C158.783 62.5668 156.267 59.4167 156.267 55.2001C156.267 50.9834 158.783 47.8667 162.85 47.8667C164.817 47.8667 166.433 48.6167 167.683 50.3501L169.65 48.5334C168.183 46.6334 166.133 45.2167 162.667 45.2167C156.983 45.2167 153.167 49.5501 153.167 55.2001C153.15 60.8834 156.983 65.2001 162.667 65.2168ZM178.583 65.2168C180.317 65.2168 181.383 64.7001 182.133 64.0001L181.267 61.7834C180.867 62.2168 180.1 62.5668 179.25 62.5668C177.95 62.5668 177.317 61.5334 177.317 60.1168V48.2834H181.183V45.6834H177.317V40.5001H174.35V45.7001H171.2V48.3001H174.35V60.7668C174.367 63.6001 175.783 65.2168 178.583 65.2168Z" fill="#00D8FF"/>
</svg>
