<svg width="200" height="100" viewBox="0 0 200 100" fill="none" xmlns="http://www.w3.org/2000/svg">
<path d="M54.1664 55.7402C57.3658 55.7402 59.9594 53.1466 59.9594 49.9473C59.9594 46.7479 57.3658 44.1543 54.1664 44.1543C50.967 44.1543 48.3734 46.7479 48.3734 49.9473C48.3734 53.1466 50.967 55.7402 54.1664 55.7402Z" fill="#00D8FF"/>
<path d="M54.1664 63.5076C46.0029 63.5076 38.8567 62.5411 33.5013 60.711C26.0676 58.1707 21.4489 54.044 21.4489 49.9472C21.4489 45.9925 25.7258 42.1405 32.8917 39.6418C38.6985 37.6177 46.2546 36.5034 54.1652 36.5034H54.1664C61.9304 36.5034 69.3849 37.598 75.1594 39.5841C82.4996 42.1116 86.8827 45.9867 86.8827 49.9472C86.8827 54.0544 82.1047 58.1869 74.4146 60.7352C69.0154 62.5227 61.8253 63.5076 54.1664 63.5076ZM54.1664 39.8369C46.7269 39.8369 39.3728 40.9131 33.9886 42.7906C27.6633 44.996 24.7824 48.0466 24.7824 49.9484C24.7824 52.0649 28.1471 55.3591 34.5786 57.5588C39.5194 59.2469 46.4752 60.1764 54.1664 60.1764C61.4789 60.1764 68.2961 59.2515 73.365 57.5738C80.3623 55.254 83.5492 51.9933 83.5492 49.9472C83.5492 48.0455 80.584 44.9787 74.074 42.7363C68.6413 40.8669 61.5701 39.8369 54.1664 39.8369Z" fill="#00D8FF"/>
<path d="M41.0182 79.1176C39.8023 79.1176 38.7066 78.8555 37.7724 78.3162C34.3465 76.3418 33.1457 70.7116 34.5625 63.2559C35.709 57.2159 38.5172 50.1135 42.4696 43.2583H42.4708C46.3505 36.5323 51.0234 30.6216 55.627 26.6126C61.4835 21.5182 67.0305 19.6534 70.4599 21.6337C74.0174 23.6843 75.2113 29.8884 73.5763 37.8232C72.4321 43.3853 69.692 50.1054 65.862 56.7482C61.7803 63.8263 57.3729 69.5327 53.1168 73.2519C48.7591 77.0623 44.421 79.1176 41.0182 79.1176ZM45.3574 44.9244C41.6417 51.3686 38.8994 58.277 37.8371 63.8783C36.5866 70.4599 37.7909 74.4804 39.4375 75.4296C41.2688 76.4896 45.8043 75.2183 50.9229 70.7439C54.9054 67.2626 59.0737 61.8495 62.9742 55.0843C66.631 48.7429 69.2359 42.3749 70.3109 37.1524C71.7981 29.9334 70.5673 25.5457 68.7937 24.5226C67.146 23.5735 63.0077 24.6092 57.814 29.1286C53.4817 32.9009 49.057 38.5103 45.3574 44.9244Z" fill="#00D8FF"/>
<path d="M67.3261 79.1419C64.1115 79.1419 60.0563 77.2217 55.8557 73.6064C51.1954 69.5963 46.4451 63.6162 42.4812 56.7691C38.5923 50.0535 35.8049 43.0539 34.6317 37.0566C33.1411 29.4381 34.2969 23.704 37.7263 21.7192C41.2838 19.6592 47.2499 21.7261 53.3085 27.1045C57.5588 30.8791 62.0135 36.6086 65.8516 43.2387C69.9438 50.3087 72.6873 56.9781 73.7842 62.5239C75.3095 70.229 74.0555 76.2922 70.5072 78.3463C69.5847 78.8798 68.5131 79.1419 67.3261 79.1419ZM40.9339 24.2571C40.3035 24.2571 39.785 24.3795 39.3947 24.6047C37.7493 25.5573 36.5797 29.661 37.9018 36.4181C39.0056 42.0609 41.6567 48.6956 45.3644 55.0994C49.0916 61.5378 53.708 67.362 58.0299 71.0812C63.107 75.4516 67.1922 76.4111 68.8376 75.4631C70.67 74.402 71.8351 69.8399 70.5142 63.1729C69.4877 57.9826 66.877 51.6677 62.9673 44.9106C59.3024 38.5796 55.0867 33.1411 51.095 29.5974C46.7973 25.7824 43.1647 24.2571 40.9339 24.2571Z" fill="#00D8FF"/>
<path d="M104.475 40.8619H101.477V49.0653H98.6855V29H106.229C107.172 29 108.02 29.1509 108.794 29.4715C109.567 29.792 110.208 30.2069 110.736 30.7538C111.264 31.2819 111.66 31.923 111.943 32.6397C112.226 33.3751 112.358 34.1483 112.358 34.9781C112.358 36.4302 111.924 37.6748 111.075 38.6932C110.208 39.7304 109.02 40.3716 107.492 40.6544L112.282 49.0653H109.058L104.475 40.8619ZM105.72 38.3726C106.851 38.3726 107.756 38.0709 108.454 37.4485C109.152 36.8451 109.491 36.0153 109.491 34.9781C109.491 33.9032 109.152 33.0545 108.454 32.4322C107.756 31.8099 106.851 31.4893 105.72 31.4893H101.477V38.3726H105.72Z" fill="#00D8FF"/>
<path d="M127.199 45.1804C127.011 45.7838 126.728 46.3496 126.37 46.8588C125.992 47.3868 125.559 47.8394 125.031 48.2166C124.503 48.6126 123.918 48.9143 123.258 49.1406C122.598 49.3669 121.862 49.4801 121.07 49.4801C120.165 49.4801 119.298 49.3292 118.468 49.0086C117.638 48.688 116.903 48.2166 116.28 47.5942C115.658 46.9719 115.149 46.1987 114.791 45.3124C114.432 44.4072 114.244 43.37 114.244 42.2385C114.244 41.1636 114.413 40.1829 114.791 39.3154C115.149 38.4291 115.62 37.6748 116.224 37.0524C116.827 36.4301 117.506 35.921 118.298 35.5815C119.09 35.2421 119.92 35.0535 120.769 35.0535C121.806 35.0535 122.73 35.2232 123.56 35.5815C124.371 35.9398 125.068 36.4113 125.615 37.0336C126.162 37.6559 126.577 38.4102 126.879 39.2777C127.162 40.1452 127.312 41.1258 127.312 42.1819C127.312 42.3516 127.312 42.5025 127.294 42.6534C127.275 42.8042 127.275 42.9362 127.256 43.0305H117.016C117.035 43.634 117.148 44.1809 117.355 44.6901C117.563 45.1992 117.846 45.633 118.223 46.0101C118.6 46.3873 119.034 46.6513 119.524 46.8588C120.014 47.0662 120.561 47.1605 121.127 47.1605C122.24 47.1605 123.088 46.8965 123.673 46.3685C124.257 45.8404 124.691 45.1992 124.936 44.4072L127.199 45.1804ZM124.503 40.8618C124.465 39.8812 124.144 39.0514 123.522 38.3914C122.9 37.7313 121.976 37.3919 120.769 37.3919C120.203 37.3919 119.694 37.4862 119.26 37.6936C118.826 37.9011 118.449 38.1651 118.128 38.4857C117.808 38.8251 117.563 39.1834 117.374 39.5983C117.186 40.0132 117.072 40.4469 117.054 40.8618H124.503V40.8618Z" fill="#00D8FF"/>
<path d="M129.821 45.4066C129.821 44.8032 129.915 44.2563 130.141 43.7848C130.368 43.3134 130.632 42.8985 131.009 42.559C131.386 42.2196 131.82 41.9367 132.329 41.7481C132.838 41.5407 133.385 41.3898 133.969 41.2955L137.647 40.7486C138.062 40.692 138.345 40.5789 138.477 40.3714C138.627 40.1829 138.684 39.9754 138.684 39.7303C138.684 39.0702 138.458 38.5045 137.986 38.0142C137.515 37.5238 136.779 37.2975 135.742 37.2975C134.799 37.2975 134.083 37.5616 133.573 38.0707C133.064 38.5988 132.763 39.24 132.668 40.032L130.122 39.4285C130.198 38.7874 130.386 38.2027 130.707 37.6559C131.028 37.109 131.424 36.6375 131.914 36.2603C132.404 35.8832 132.97 35.5814 133.63 35.3551C134.271 35.1477 134.969 35.0345 135.704 35.0345C136.723 35.0345 137.59 35.1666 138.307 35.4494C139.023 35.7323 139.608 36.0906 140.061 36.5432C140.513 36.9958 140.853 37.5238 141.06 38.1273C141.268 38.7308 141.381 39.372 141.381 40.032V46.8399C141.381 47.4433 141.4 47.9336 141.437 48.2919C141.475 48.6503 141.513 48.9143 141.55 49.084H138.948C138.91 48.9143 138.873 48.688 138.854 48.4051C138.816 48.1222 138.816 47.7451 138.816 47.2359C138.665 47.481 138.458 47.7451 138.213 48.0091C137.967 48.2731 137.666 48.5182 137.307 48.7445C136.949 48.9708 136.534 49.1594 136.044 49.2914C135.554 49.4234 135.026 49.4989 134.422 49.4989C133.724 49.4989 133.102 49.3857 132.536 49.1594C131.97 48.9331 131.499 48.6314 131.103 48.2731C130.707 47.9148 130.405 47.481 130.179 46.9907C129.934 46.4815 129.821 45.9535 129.821 45.4066ZM134.743 47.2547C135.29 47.2547 135.799 47.1793 136.289 47.0473C136.76 46.8964 137.175 46.6701 137.534 46.3684C137.873 46.0478 138.156 45.6518 138.363 45.1237C138.571 44.6146 138.684 43.9734 138.684 43.2379V42.6156L134.516 43.2379C133.951 43.3322 133.479 43.5396 133.102 43.8791C132.725 44.1997 132.536 44.6711 132.536 45.2746C132.536 45.7838 132.725 46.2364 133.121 46.6513C133.536 47.0473 134.064 47.2547 134.743 47.2547Z" fill="#00D8FF"/>
<path d="M151.187 37.4861C150.64 37.4861 150.112 37.5804 149.622 37.7879C149.132 37.9764 148.698 38.2782 148.302 38.6742C147.906 39.0702 147.604 39.5605 147.378 40.164C147.151 40.7675 147.038 41.4464 147.038 42.2384C147.038 43.0116 147.151 43.6905 147.378 44.294C147.604 44.8786 147.906 45.3878 148.283 45.7838C148.66 46.1798 149.094 46.5004 149.622 46.7078C150.131 46.9153 150.659 47.0284 151.206 47.0284C151.847 47.0284 152.394 46.9342 152.828 46.7456C153.28 46.557 153.639 46.3307 153.922 46.0289C154.223 45.7461 154.45 45.4443 154.619 45.1049C154.789 44.7843 154.921 44.4826 154.997 44.2186L157.354 45.2369C157.184 45.7272 156.939 46.2175 156.618 46.7267C156.298 47.217 155.883 47.6885 155.374 48.1034C154.865 48.5182 154.261 48.8577 153.582 49.1029C152.903 49.348 152.111 49.48 151.225 49.48C150.225 49.48 149.301 49.2914 148.472 48.9331C147.642 48.556 146.906 48.0468 146.303 47.4056C145.699 46.7644 145.228 45.9912 144.87 45.1238C144.511 44.2563 144.342 43.2945 144.342 42.2573C144.342 41.2012 144.511 40.2206 144.87 39.3531C145.209 38.4668 145.699 37.7124 146.303 37.0712C146.925 36.4489 147.642 35.9397 148.49 35.5814C149.32 35.2231 150.225 35.0345 151.187 35.0345C152.092 35.0345 152.884 35.1666 153.582 35.4117C154.28 35.6569 154.865 35.9963 155.374 36.4112C155.864 36.8261 156.279 37.2975 156.581 37.8067C156.882 38.3159 157.109 38.8439 157.26 39.3531L154.846 40.3715C154.751 40.032 154.619 39.6926 154.45 39.3531C154.28 39.0137 154.054 38.7119 153.752 38.429C153.45 38.1462 153.111 37.9199 152.696 37.7501C152.262 37.5804 151.772 37.4861 151.187 37.4861Z" fill="#00D8FF"/>
<path d="M164.03 35.4496H166.972V37.8446H164.03V44.9165C164.03 45.5388 164.181 46.0103 164.463 46.312C164.746 46.6137 165.237 46.7834 165.934 46.7834C166.104 46.7834 166.293 46.7834 166.5 46.7646C166.708 46.7457 166.877 46.708 166.99 46.6892V48.9522C166.877 48.9899 166.651 49.0464 166.33 49.103C166.01 49.1596 165.614 49.1973 165.18 49.1973C164.011 49.1973 163.087 48.8579 162.408 48.1978C161.729 47.5378 161.389 46.576 161.389 45.3314V37.8635H158.787V35.4685H159.523C160.258 35.4685 160.786 35.2799 161.125 34.8838C161.446 34.4878 161.616 33.9787 161.616 33.3752V31.1499H164.049V35.4496H164.03Z" fill="#00D8FF"/>
<path d="M112.282 72.4495L101.439 56.0994V72.4495H98.6667V52.3843H102.363L112.377 67.7727V52.3843H115.149V72.4495H112.282Z" fill="#00D8FF"/>
<path d="M118.996 68.791C118.996 68.1876 119.09 67.6407 119.317 67.1692C119.543 66.6977 119.807 66.2829 120.184 65.9434C120.561 65.604 120.995 65.3399 121.504 65.1325C122.013 64.9251 122.56 64.7742 123.145 64.6799L126.822 64.133C127.237 64.0764 127.52 63.9633 127.652 63.7559C127.803 63.5673 127.859 63.3598 127.859 63.1147C127.859 62.4546 127.633 61.8889 127.162 61.3986C126.69 60.9082 125.955 60.6819 124.917 60.6819C123.975 60.6819 123.258 60.946 122.749 61.4551C122.24 61.9832 121.938 62.6244 121.844 63.4164L119.298 62.8129C119.373 62.1718 119.562 61.5871 119.882 61.0402C120.203 60.4934 120.599 60.0219 121.089 59.6447C121.58 59.2676 122.145 58.9658 122.805 58.7395C123.447 58.5132 124.144 58.4189 124.88 58.4189C125.898 58.4189 126.766 58.551 127.482 58.8338C128.199 59.0978 128.783 59.475 129.236 59.9276C129.689 60.3802 130.028 60.9082 130.236 61.5117C130.443 62.1152 130.556 62.7564 130.556 63.4164V70.2431C130.556 70.8466 130.575 71.3369 130.613 71.6763C130.65 72.0347 130.688 72.2987 130.726 72.4684H128.123C128.086 72.2987 128.048 72.0724 128.029 71.7895C127.991 71.5066 127.991 71.1294 127.991 70.6391C127.841 70.8843 127.633 71.1295 127.388 71.3935C127.143 71.6575 126.841 71.9026 126.483 72.1289C126.124 72.3552 125.71 72.5438 125.219 72.6758C124.729 72.8078 124.201 72.8833 123.597 72.8833C122.9 72.8833 122.277 72.7701 121.712 72.5438C121.146 72.3175 120.674 72.0158 120.278 71.6575C119.882 71.2992 119.581 70.8654 119.354 70.3751C119.09 69.8659 118.996 69.3379 118.996 68.791ZM123.918 70.6391C124.465 70.6391 124.974 70.5637 125.464 70.4317C125.955 70.2997 126.351 70.0545 126.709 69.7528C127.048 69.4322 127.331 69.0362 127.539 68.5081C127.746 67.999 127.859 67.3578 127.859 66.6223V66L123.692 66.6223C123.126 66.7166 122.654 66.924 122.277 67.2635C121.9 67.6029 121.712 68.0555 121.712 68.659C121.712 69.1682 121.9 69.6208 122.296 70.0357C122.692 70.4505 123.239 70.6391 123.918 70.6391Z" fill="#00D8FF"/>
<path d="M138.194 58.8339H141.136V61.2289H138.194V68.3007C138.194 68.9231 138.345 69.3945 138.627 69.6963C138.91 70.0169 139.401 70.1677 140.098 70.1677C140.268 70.1677 140.457 70.1677 140.664 70.1489C140.872 70.13 141.041 70.0923 141.154 70.0734V72.3364C141.041 72.3741 140.815 72.4307 140.494 72.4873C140.174 72.5439 139.778 72.5816 139.344 72.5816C138.175 72.5816 137.251 72.2421 136.572 71.5821C135.893 70.9032 135.554 69.9603 135.554 68.7156V61.2477H132.951V58.8527H133.687C134.422 58.8527 134.95 58.6453 135.29 58.2493C135.629 57.8532 135.78 57.3629 135.78 56.7595V54.5342H138.213V58.8339H138.194Z" fill="#00D8FF"/>
<path d="M144.078 53.6854C144.078 53.1385 144.266 52.6859 144.624 52.3087C144.983 51.9316 145.435 51.7618 145.963 51.7618C146.51 51.7618 146.963 51.9504 147.34 52.3087C147.717 52.6859 147.887 53.1385 147.887 53.6854C147.887 54.2134 147.698 54.666 147.34 55.0243C146.982 55.3826 146.51 55.5712 145.963 55.5712C145.435 55.5712 144.983 55.3826 144.624 55.0243C144.266 54.666 144.078 54.2134 144.078 53.6854ZM144.681 72.4494V58.8526H147.302V72.4494H144.681Z" fill="#00D8FF"/>
<path d="M158.052 72.4495H155.374L149.867 58.8527H152.865L156.731 69.3379L160.635 58.8527H163.483L158.052 72.4495Z" fill="#00D8FF"/>
<path d="M177.457 68.5647C177.268 69.1681 176.985 69.7339 176.627 70.243C176.25 70.7522 175.816 71.2048 175.288 71.6009C174.76 71.9969 174.175 72.2986 173.515 72.5249C172.855 72.7512 172.12 72.8644 171.328 72.8644C170.423 72.8644 169.555 72.7135 168.725 72.3929C167.896 72.0723 167.16 71.6008 166.538 70.9785C165.915 70.3562 165.406 69.6019 165.048 68.6967C164.69 67.7915 164.501 66.7731 164.501 65.6228C164.501 64.5478 164.671 63.5672 165.048 62.6997C165.406 61.8322 165.878 61.059 166.481 60.4367C167.085 59.8144 167.764 59.3241 168.556 58.9658C169.348 58.6263 170.177 58.4377 171.026 58.4377C172.063 58.4377 172.987 58.6075 173.817 58.9658C174.628 59.3241 175.326 59.7955 175.873 60.4179C176.42 61.0402 176.834 61.7945 177.136 62.662C177.419 63.5295 177.57 64.5101 177.57 65.5662C177.57 65.7359 177.57 65.8868 177.551 66.0376C177.532 66.1885 177.532 66.3205 177.513 66.4148H167.273C167.292 67.0183 167.405 67.584 167.613 68.0743C167.82 68.5835 168.103 69.0173 168.48 69.3944C168.857 69.7716 169.291 70.0545 169.781 70.243C170.272 70.4505 170.819 70.5448 171.384 70.5448C172.497 70.5448 173.346 70.2808 173.93 69.7527C174.515 69.2247 174.949 68.5835 175.194 67.8103L177.457 68.5647ZM174.76 64.2461C174.722 63.2655 174.402 62.4357 173.779 61.7757C173.157 61.1156 172.233 60.7762 171.026 60.7762C170.46 60.7762 169.951 60.8705 169.517 61.0779C169.065 61.2853 168.707 61.5494 168.386 61.87C168.065 62.2094 167.82 62.5677 167.632 62.9826C167.443 63.3975 167.33 63.8124 167.311 64.2461H174.76Z" fill="#00D8FF"/>
</svg>
