<svg width="200" height="100" viewBox="0 0 200 100" fill="none" xmlns="http://www.w3.org/2000/svg">
<path d="M62.26 62.1666V39.6216H65.16L78.9433 57.7766V39.6216H81.7V62.1666H78.8L65 43.8333V62.1666H62.2433H62.26ZM104.155 61.2716C102.276 61.9661 100.287 62.3178 98.2833 62.31C90.12 62.31 86.0367 58.4066 86.0367 50.565C86.0367 43.1533 89.975 39.4283 97.87 39.4283C100.127 39.4283 102.237 39.75 104.17 40.3616V42.8683C102.237 42.1183 100.232 41.7583 98.19 41.7583C92.0317 41.7583 88.9517 44.695 88.9517 50.495C88.9517 56.7616 91.995 59.8783 98.0467 59.8783C99.0133 59.8783 100.088 59.735 101.27 59.485V51.93H104.17V61.275L104.155 61.2716ZM108.81 53.465V39.6083H111.71V53.465C111.71 57.7983 113.877 59.965 118.21 59.965C122.507 59.965 124.71 57.7983 124.71 53.465V39.6083H127.61V53.465C127.61 59.3733 124.493 62.345 118.227 62.345C111.96 62.345 108.843 59.3733 108.843 53.465H108.81ZM135.667 39.6216V59.8333H147.5V62.1966H132.783V39.6216H135.683H135.667ZM151.673 62.18H148.63L159.833 36.6666L171.042 62.1966H167.818L164.918 55.1066H157.468L158.257 52.7433H163.95L159.725 42.5383L151.667 62.1966L151.673 62.18ZM174.16 62.18V39.6216H183.793C188.09 39.6216 190.238 41.4116 190.238 45.0283C190.238 47.965 188.125 50.1483 183.938 51.5283L191.672 62.1616H187.838L180.677 52.0283V50.1666C184.973 49.4866 187.177 47.84 187.177 45.19C187.177 43.1133 186.01 42.0733 183.597 42.0733H177.152V62.1666H174.18L174.16 62.18Z" fill="#B52E31"/>
<path d="M8.33333 33.6066L31.4283 25.3733L55.1333 33.465L51.3 64.0083L31.4283 75L11.8783 64.1666L8.33333 33.6066Z" fill="#E23237"/>
<path d="M55.1333 33.4634L31.4283 25.3717V75L51.3017 64.0067L55.135 33.4634H55.1333Z" fill="#B52E31"/>
<path d="M31.4667 31.1717L17.07 63.1667L22.4417 63.06L25.3417 55.8267H38.1967L41.3633 63.1317L46.4833 63.2384L31.48 31.155L31.4667 31.1717ZM31.5 41.4484L36.37 51.6184H27.2367L31.5 41.4517V41.4484Z" fill="white"/>
</svg>
