<svg width="200" height="100" viewBox="0 0 200 100" fill="none" xmlns="http://www.w3.org/2000/svg">
<path d="M125.482 63.0527L128.599 55.1642H137.613L133.343 43.1958L138.684 29.6687L154 70.3313H142.709L140.093 63.0527H125.482Z" fill="#3D3D3D"/>
<path d="M115.845 70.3313L132.245 29.6687H121.375L110.166 55.9503L102.182 29.6687H93.8328L85.2666 55.9503L79.2214 43.982L73.759 60.8163L79.3163 70.3313H90.0105L97.75 46.7606L105.123 70.3313H115.845Z" fill="#5A0FC8"/>
<path d="M56.3148 56.3705H63.0105C65.0437 56.3705 66.8464 56.1401 68.4322 55.6928L70.1672 50.3524L75.006 35.4428C74.6401 34.86 74.2199 34.3042 73.7455 33.7892C71.2515 31.0377 67.619 29.6687 62.8343 29.6687H46V70.3313H56.3148V56.3705ZM65.1792 39.0211C66.1551 39.997 66.6295 41.2982 66.6295 42.9383C66.6295 44.5919 66.2093 45.8931 65.3554 46.869C64.4202 47.9398 62.6988 48.482 60.1913 48.482H56.3283V37.5573H60.2319C62.5497 37.5573 64.2033 38.0452 65.1792 39.0211Z" fill="#3D3D3D"/>
</svg>
